<?xml version="1.0"?>
<svg xmlns="http://www.w3.org/2000/svg" xmlns:xlink="http://www.w3.org/1999/xlink" version="1.1" id="Layer_1" x="0px" y="0px" viewBox="0 0 512 512" style="enable-background:new 0 0 512 512;" xml:space="preserve" width="512px" height="512px" class=""><g><circle style="fill:#FD6B00" cx="256" cy="256" r="256" data-original="#FF9911" class="" data-old_color="#FF9911"/><path style="fill:#FD5300" d="M256,0c-11.317,0-22.461,0.744-33.391,2.167C348.216,18.53,445.217,125.933,445.217,256  s-97.002,237.47-222.609,253.833C233.539,511.256,244.683,512,256,512c141.385,0,256-114.616,256-256S397.385,0,256,0z" data-original="#ED8800" class="active-path" data-old_color="#ED8800"/><g>
	<path style="fill:#FFFFFF" d="M277.704,352.642V161.564c0-3.446,2.96-6.147,6.391-5.835l3.322,0.303   c39.03,3.561,72.644,29.663,85.767,66.548c0.009,0.023,0.032,0.039,0.057,0.037c1.835-0.147,3.552-0.218,5.193-0.218   c37.461,0,67.877,30.749,67.332,68.333c-0.535,36.979-31.426,66.345-68.408,66.345h-95.22   C279.69,357.077,277.704,355.091,277.704,352.642z" data-original="#FFFFFF" class=""/>
	<path style="fill:#FFFFFF" d="M244.87,158.955c-4.611,0-8.348,3.736-8.348,8.348V356.52c0,4.611,3.736,8.348,8.348,8.348   s8.348-3.736,8.348-8.348V167.303C253.217,162.691,249.481,158.955,244.87,158.955z" data-original="#FFFFFF" class=""/>
	<path style="fill:#FFFFFF" d="M211.478,192.346c-4.611,0-8.348,3.736-8.348,8.348V356.52c0,4.611,3.736,8.348,8.348,8.348   s8.348-3.736,8.348-8.348V200.694C219.826,196.083,216.09,192.346,211.478,192.346z" data-original="#FFFFFF" class=""/>
	<path style="fill:#FFFFFF" d="M178.087,203.477c-4.611,0-8.348,3.736-8.348,8.348V356.52c0,4.611,3.736,8.348,8.348,8.348   s8.348-3.736,8.348-8.348V211.824C186.435,207.213,182.698,203.477,178.087,203.477z" data-original="#FFFFFF" class=""/>
	<path style="fill:#FFFFFF" d="M144.696,214.607c-4.611,0-8.348,3.736-8.348,8.348V356.52c0,4.611,3.736,8.348,8.348,8.348   s8.348-3.736,8.348-8.348V222.955C153.043,218.344,149.307,214.607,144.696,214.607z" data-original="#FFFFFF" class=""/>
	<path style="fill:#FFFFFF" d="M111.304,236.868c-4.611,0-8.348,3.736-8.348,8.348V356.52c0,4.611,3.736,8.348,8.348,8.348   s8.348-3.736,8.348-8.348V245.216C119.652,240.604,115.916,236.868,111.304,236.868z" data-original="#FFFFFF" class=""/>
	<path style="fill:#FFFFFF" d="M77.913,259.129c-4.611,0-8.348,3.736-8.348,8.348v66.783c0,4.611,3.736,8.348,8.348,8.348   s8.348-3.736,8.348-8.348v-66.783C86.261,262.865,82.524,259.129,77.913,259.129z" data-original="#FFFFFF" class=""/>
</g></g> </svg>
